<?xml version="1.0" encoding="utf-8"?>
<!-- Generator: Adobe Illustrator 16.0.3, SVG Export Plug-In . SVG Version: 6.00 Build 0)  -->
<!DOCTYPE svg PUBLIC "-//W3C//DTD SVG 1.1//EN" "http://www.w3.org/Graphics/SVG/1.1/DTD/svg11.dtd">
<svg version="1.1" id="Layer_1" xmlns="http://www.w3.org/2000/svg" xmlns:xlink="http://www.w3.org/1999/xlink" x="0px" y="0px"
	 width="420px" height="160px" viewBox="0 0 420 160" enable-background="new 0 0 420 160" xml:space="preserve">
<path d="M7,150.317C7,151.798,8.198,153,9.676,153h400.647c1.478,0,2.676-1.202,2.676-2.683V9.683C413,8.201,411.802,7,410.324,7
	H9.676C8.198,7,7,8.201,7,9.683V150.317z"/>
<path fill="#AAB2AB" d="M11.93,14.67c0-1.475,1.196-2.67,2.67-2.67H405.43c1.475,0,2.671,1.196,2.671,2.67v9.409
	c0,1.475-1.196,2.671-2.671,2.671H14.601c-1.475,0-2.67-1.196-2.67-2.671V14.67z"/>
<g>
	<g>
		<path d="M172.95,22.03c9.91-2.22,20.79-0.94,29.52,4.42c8.5,5.22,15.16,13.68,17.49,23.46c2.43,10.24,1.17,21.59-4.54,30.55
			c-5.62,8.61-14.57,15.1-24.65,17.31c-8.75,1.79-18.2,0.88-26.13-3.38c-12.05-6.38-20.91-19.12-21.15-32.96
			C142.32,43.51,155.51,26.05,172.95,22.03z M173.92,29.05c-13.92,3.75-24.48,17.91-23.4,32.43c0.52,15.6,14.38,29.44,29.98,30
			c12.02,0.95,23.86-5.93,29.79-16.27c3.92-6.82,4.65-15.16,3.03-22.77c-2.07-9.56-9.17-17.62-17.92-21.76
			C188.72,27.68,180.99,27.26,173.92,29.05z"/>
	</g>
	<g>
		<path d="M261.69,21.75c9.25-1.71,19.24-0.66,27.46,4.12c9.31,5.32,16.46,14.55,18.7,25.11c1.9,9.36,0.9,19.56-3.89,27.93
			c-7.23,12.66-21.85,20.81-36.48,19.62c-19.14-0.76-36.02-17.92-36.36-37.1C229.89,43.11,243.72,25.3,261.69,21.75z M243.22,42.47
			c4.91,2.19,9.83,4.37,14.73,6.57c1.79-4.12,5.85-6.47,10.19-6.96c-0.02-1.96-0.02-3.93-0.02-5.89c1.49,0,2.98,0,4.47,0
			c0,1.98,0,3.97,0,5.96c3.5,0.44,6.91,1.49,9.85,3.49c-1.68,1.77-3.38,3.53-5.08,5.29c-3.49-2.05-10.56-4.07-11.65,1.54
			c11.72,5.25,23.45,10.46,35.19,15.66c1.15-5.55,1.24-11.38-0.24-16.88c-3.72-14.24-18.38-24.74-33.12-23.18
			C257.59,28.45,248.81,34.51,243.22,42.47z M239.72,49.34c-1.34,4.59-2.07,9.42-1.4,14.19c1.58,15.98,17.08,29.12,33.13,27.96
			c10.95-0.27,20.9-7.07,26.59-16.18c-4.87-2.2-9.76-4.36-14.64-6.56c-1.31,4.99-5.87,8.09-10.8,8.73
			c-0.01,1.98-0.01,3.95-0.01,5.93c-1.49,0-2.98,0-4.47,0c0-1.97,0-3.94,0-5.91c-4.33-0.36-8.42-2.02-11.86-4.66
			c1.78-1.83,3.58-3.65,5.39-5.46c3.05,2.35,6.95,4.08,10.86,3.14c2.63-0.52,3.79-4.82,1.11-6.03
			C262.37,59.34,251.02,54.38,239.72,49.34z"/>
	</g>
	<g>
		<path d="M347.93,22.07c9.68-2.2,20.3-1.16,28.96,3.86c9.38,5.37,16.49,14.74,18.65,25.39c1.95,9.88,0.58,20.65-4.92,29.22
			c-5.51,8.34-14.11,14.72-23.89,17.03c-9.25,2.1-19.38,1.1-27.67-3.66c-11.61-6.45-20.01-18.91-20.31-32.36
			C317.52,43.68,330.56,26.21,347.93,22.07z M348.98,29.09c-13.86,3.81-24.31,17.99-23.21,32.44c0.51,15.5,14.22,29.18,29.66,29.92
			c12.02,1.07,23.93-5.74,29.97-16.01c3.93-6.68,4.75-14.85,3.33-22.38c-1.96-9.89-9.2-18.34-18.29-22.48
			C363.74,27.67,356.03,27.22,348.98,29.09z"/>
	</g>
	<g>
		<path d="M72.01,23.2c12.09-1.39,24.91,0.75,35.15,7.59c13.03,8.55,22.65,22.98,23.48,38.77c1.64,14.68-2.63,30.26-13.09,40.96
			c-5.7,5.46-11.97,10.61-19.42,13.45c-17.28,6.71-38.67,4.19-52.59-8.56c-8.59-7.17-15.44-16.82-17.9-27.86
			c-2.57-12.68-1.49-26.5,5.07-37.85C41.04,35.75,55.33,24.33,72.01,23.2z M69.06,33.21c-19.95,4.42-35.2,24.74-33.14,45.21
			c1.23,22.47,22.93,41.48,45.42,39.45c11.95-0.45,23.16-6.73,30.75-15.82c7.51-8.53,10.47-20.43,9.21-31.6
			c-1.02-13.56-9.59-25.9-21.21-32.67C90.85,32.27,79.49,31.09,69.06,33.21z"/>
	</g>
	<path d="M180.03,35.21c3.88-1.98,8.78,2.04,7.49,6.23c-0.76,3.79-5.95,5.36-8.76,2.75C175.8,41.82,176.59,36.7,180.03,35.21z"/>
	<path d="M345.15,44.08c6.23-6.29,16.93-6.03,23.97-1.26c11.09,7.99,10.93,27.17-0.42,34.87c-7.41,5.07-19.02,4.65-24.92-2.57
		c-2.21-2.6-3.19-5.91-3.91-9.17c3.24-0.02,6.49-0.02,9.74-0.01c0.34,6.34,8.09,8.82,12.96,5.7c4.1-2.93,4.97-8.46,4.72-13.16
		c-0.19-3.76-1.25-8.07-4.79-10.05c-3.03-1.33-6.79-1.31-9.64,0.48c-1.85,1.21-2.45,3.4-3.21,5.34c0.73,0.01,2.19,0.04,2.92,0.05
		c-2.57,2.57-5.13,5.14-7.7,7.7c-2.53-2.53-5.04-5.07-7.61-7.56c0.71-0.07,2.13-0.2,2.84-0.27
		C341.19,50.57,342.3,46.74,345.15,44.08z"/>
	<path d="M171.96,49.86c0.2-1.72,2.02-2.29,3.51-2.19c4.92,0,9.85-0.16,14.77,0.09c1.45,0.01,2.54,1.3,2.47,2.73
		c0.2,5.2,0,10.4,0.07,15.6c-1.48,0-2.96,0.01-4.43,0.01c0,6.29-0.01,12.58,0,18.87c-4.04,0-8.07,0-12.1,0
		c0-6.29,0-12.58-0.01-18.88c-1.48,0-2.95,0.01-4.43,0.01C171.92,60.69,171.58,55.26,171.96,49.86z"/>
	<path d="M51.41,65.53c5.82-9.33,21.42-8.66,26.7,0.9c-2.26,1.18-4.54,2.34-6.8,3.52c-1.22-1.47-2.29-3.33-4.24-3.91
		c-3.11-0.87-7.01,0.61-7.93,3.91c-1.1,3.45-1.14,7.37,0.2,10.77c1.26,3.32,5.58,4.44,8.66,3.15c1.81-0.72,2.79-2.52,3.99-3.94
		c2.07,1.16,4.16,2.27,6.25,3.39c-4.23,7.88-14.99,10.4-22.51,5.84C48.01,84.35,46.98,72.89,51.41,65.53z"/>
	<path d="M86.1,61.18c7.24-4.46,18.06-2.4,22.33,5.25c-2.32,1.18-4.63,2.35-6.95,3.51c-1.52-2.38-3.93-4.89-7.07-4.02
		c-3.72,0.21-5.78,4.07-5.82,7.44c-0.43,3.98,0.31,9.65,4.97,10.74c3.6,1.28,6.96-1.08,8.61-4.16c2.12,1.14,4.27,2.26,6.41,3.38
		c-4.91,9.57-19.92,11-26.31,2.32C77.24,78.24,78.19,66.26,86.1,61.18z"/>
	<path d="M165.47,123.22c2.73,0.23,8.31-1.12,7.92,3.27c-1.28,2.96-5.38,1.61-7.92,1.99C165.47,126.72,165.47,124.97,165.47,123.22z
		"/>
	<path d="M364.09,124.84c0.96,2.73,1.9,5.48,2.85,8.22c-1.93,0-3.86,0-5.78,0C362.13,130.32,363.11,127.58,364.09,124.84z"/>
	<path d="M165.47,131.72c2.68,0.09,5.52-0.32,8.02,0.88c1.35,1.47,1.09,4.51-1.09,5.01c-2.29,0.43-4.62,0.24-6.93,0.28
		C165.47,135.83,165.47,133.78,165.47,131.72z"/>
</g>
<g>
	<g>
		<path fill="#FFFFFF" d="M173.92,29.05c7.07-1.79,14.8-1.37,21.48,1.63c8.75,4.14,15.85,12.2,17.92,21.76
			c1.62,7.61,0.89,15.95-3.03,22.77c-5.93,10.34-17.77,17.22-29.79,16.27c-15.6-0.56-29.46-14.4-29.98-30
			C149.44,46.96,160,32.8,173.92,29.05z M180.03,35.21c-3.44,1.49-4.23,6.61-1.27,8.98c2.81,2.61,8,1.04,8.76-2.75
			C188.81,37.25,183.91,33.23,180.03,35.21z M171.96,49.86c-0.38,5.4-0.04,10.83-0.15,16.24c1.48,0,2.95-0.01,4.43-0.01
			c0.01,6.3,0.01,12.59,0.01,18.88c4.03,0,8.06,0,12.1,0c-0.01-6.29,0-12.58,0-18.87c1.47,0,2.95-0.01,4.43-0.01
			c-0.07-5.2,0.13-10.4-0.07-15.6c0.07-1.43-1.02-2.72-2.47-2.73c-4.92-0.25-9.85-0.09-14.77-0.09
			C173.98,47.57,172.16,48.14,171.96,49.86z"/>
	</g>
	<path fill="#FFFFFF" d="M243.22,42.47c5.59-7.96,14.37-14.02,24.32-14.4c14.74-1.56,29.4,8.94,33.12,23.18
		c1.48,5.5,1.39,11.33,0.24,16.88c-11.74-5.2-23.47-10.41-35.19-15.66c1.09-5.61,8.16-3.59,11.65-1.54c1.7-1.76,3.4-3.52,5.08-5.29
		c-2.94-2-6.35-3.05-9.85-3.49c0-1.99,0-3.98,0-5.96c-1.49,0-2.98,0-4.47,0c0,1.96,0,3.93,0.02,5.89c-4.34,0.49-8.4,2.84-10.19,6.96
		C253.05,46.84,248.13,44.66,243.22,42.47z"/>
	<g>
		<path fill="#FFFFFF" d="M348.98,29.09c7.05-1.87,14.76-1.42,21.46,1.49c9.09,4.14,16.33,12.59,18.29,22.48
			c1.42,7.53,0.6,15.7-3.33,22.38c-6.04,10.27-17.95,17.08-29.97,16.01c-15.44-0.74-29.15-14.42-29.66-29.92
			C324.67,47.08,335.12,32.9,348.98,29.09z M345.15,44.08c-2.85,2.66-3.96,6.49-5.05,10.09c-0.71,0.07-2.13,0.2-2.84,0.27
			c2.57,2.49,5.08,5.03,7.61,7.56c2.57-2.56,5.13-5.13,7.7-7.7c-0.73-0.01-2.19-0.04-2.92-0.05c0.76-1.94,1.36-4.13,3.21-5.34
			c2.85-1.79,6.61-1.81,9.64-0.48c3.54,1.98,4.6,6.29,4.79,10.05c0.25,4.7-0.62,10.23-4.72,13.16c-4.87,3.12-12.62,0.64-12.96-5.7
			c-3.25-0.01-6.5-0.01-9.74,0.01c0.72,3.26,1.7,6.57,3.91,9.17c5.9,7.22,17.51,7.64,24.92,2.57c11.35-7.7,11.51-26.88,0.42-34.87
			C362.08,38.05,351.38,37.79,345.15,44.08z"/>
	</g>
	<g>
		<path fill="#FFFFFF" d="M69.06,33.21c10.43-2.12,21.79-0.94,31.03,4.57c11.62,6.77,20.19,19.11,21.21,32.67
			c1.26,11.17-1.7,23.07-9.21,31.6c-7.59,9.09-18.8,15.37-30.75,15.82c-22.49,2.03-44.19-16.98-45.42-39.45
			C33.86,57.95,49.11,37.63,69.06,33.21z M51.41,65.53c-4.43,7.36-3.4,18.82,4.32,23.63c7.52,4.56,18.28,2.04,22.51-5.84
			c-2.09-1.12-4.18-2.23-6.25-3.39c-1.2,1.42-2.18,3.22-3.99,3.94c-3.08,1.29-7.4,0.17-8.66-3.15c-1.34-3.4-1.3-7.32-0.2-10.77
			c0.92-3.3,4.82-4.78,7.93-3.91c1.95,0.58,3.02,2.44,4.24,3.91c2.26-1.18,4.54-2.34,6.8-3.52C72.83,56.87,57.23,56.2,51.41,65.53z
			 M86.1,61.18c-7.91,5.08-8.86,17.06-3.83,24.46c6.39,8.68,21.4,7.25,26.31-2.32c-2.14-1.12-4.29-2.24-6.41-3.38
			c-1.65,3.08-5.01,5.44-8.61,4.16c-4.66-1.09-5.4-6.76-4.97-10.74c0.04-3.37,2.1-7.23,5.82-7.44c3.14-0.87,5.55,1.64,7.07,4.02
			c2.32-1.16,4.63-2.33,6.95-3.51C104.16,58.78,93.34,56.72,86.1,61.18z"/>
	</g>
	<path fill="#FFFFFF" d="M239.72,49.34c11.3,5.04,22.65,10,33.9,15.15c2.68,1.21,1.52,5.51-1.11,6.03
		c-3.91,0.94-7.81-0.79-10.86-3.14c-1.81,1.81-3.61,3.63-5.39,5.46c3.44,2.64,7.53,4.3,11.86,4.66c0,1.97,0,3.94,0,5.91
		c1.49,0,2.98,0,4.47,0c0-1.98,0-3.95,0.01-5.93c4.93-0.64,9.49-3.74,10.8-8.73c4.88,2.2,9.77,4.36,14.64,6.56
		c-5.69,9.11-15.64,15.91-26.59,16.18c-16.05,1.16-31.55-11.98-33.13-27.96C237.65,58.76,238.38,53.93,239.72,49.34z"/>
	<g>
		<path fill="#FFFFFF" d="M160.56,119.44c4.79,0.22,9.73-0.59,14.41,0.65c4.09,1.35,3.92,7.36,0.5,9.42
			c4.77,1.87,4.9,9.28,0.15,11.2c-4.79,1.76-10.06,0.64-15.06,0.94C160.56,134.25,160.56,126.84,160.56,119.44z M165.47,123.22
			c0,1.75,0,3.5,0,5.26c2.54-0.38,6.64,0.97,7.92-1.99C173.78,122.1,168.2,123.45,165.47,123.22z M165.47,131.72
			c0,2.06,0,4.11,0,6.17c2.31-0.04,4.64,0.15,6.93-0.28c2.18-0.5,2.44-3.54,1.09-5.01C170.99,131.4,168.15,131.81,165.47,131.72z"/>
	</g>
	<path fill="#FFFFFF" d="M180.1,119.44c1.82,0,3.64,0,5.46,0c1.74,2.92,3.48,5.85,5.23,8.77c1.7-2.89,3.42-5.77,5.08-8.68
		c1.85-0.06,3.7-0.1,5.55-0.12c-2.26,3.77-4.53,7.52-6.82,11.26c-2.43,3.16-1.15,7.32-1.43,10.98c-1.65,0-3.29,0-4.93,0.01
		c-0.05-2.89,0.2-5.8-0.13-8.67C185.68,128.34,182.71,123.99,180.1,119.44z"/>
	<path fill="#FFFFFF" d="M247.19,119.41c1.63,0.02,3.27,0.05,4.91,0.08c3.05,4.99,6.18,9.93,9.27,14.89c0.01-4.98,0-9.96,0-14.94
		c1.53,0,3.06,0,4.6,0c0,7.4,0,14.81,0,22.21c-1.63,0-3.25,0.01-4.87,0.01c-3.12-4.98-6.22-9.98-9.35-14.96c0,4.99,0,9.97,0,14.96
		c-1.52,0-3.04-0.01-4.56,0C247.19,134.24,247.19,126.83,247.19,119.41z"/>
	<path fill="#FFFFFF" d="M273.31,139.68c-6.61-5.36-4.68-18.46,4.13-20.29c5.45-1.82,11.61,1.79,12.53,7.5
		c-1.52,0.01-3.04,0.01-4.55,0.01c-1.13-1.83-2.56-3.97-5.01-3.85c-8.28-0.14-8.34,15.1-0.04,14.96c2.95,0.25,4.3-2.61,5.15-4.91
		c1.53,0,3.07,0,4.61,0.01c-0.65,2.18-1.18,4.52-2.85,6.18C283.66,142.97,277.21,142.86,273.31,139.68z"/>
	<path fill="#FFFFFF" d="M334.76,125.63c0.52-9.25,16.9-8.82,17.29,0.41c-1.52,0.01-3.03,0.01-4.53,0.01
		c-0.57-4.29-8.96-4.76-7.88,0.2c3.02,2.21,7.13,1.86,10.28,3.83c3.21,2.04,3.5,7.09,0.74,9.63c-5.3,4.57-16.42,2.71-16.84-5.42
		c1.52,0,3.04,0,4.57,0c0.72,3.99,5.81,5.29,8.82,2.99c1.71-1.66-0.17-4-2.06-4.25C341.16,131.74,334.8,131.09,334.76,125.63z"/>
	<g>
		<path fill="#FFFFFF" d="M361.63,119.44c1.67,0,3.34,0,5.02,0c2.78,7.4,5.55,14.81,8.32,22.22c-1.7-0.01-3.38-0.01-5.07-0.01
			c-0.56-1.64-1.12-3.29-1.68-4.93c-2.77,0-5.53,0-8.3,0c-0.6,1.66-1.21,3.32-1.83,4.98c-1.62-0.03-3.24-0.05-4.86-0.07
			C356.03,134.23,358.83,126.83,361.63,119.44z M364.09,124.84c-0.98,2.74-1.96,5.48-2.93,8.22c1.92,0,3.85,0,5.78,0
			C365.99,130.32,365.05,127.57,364.09,124.84z"/>
	</g>
</g>
<path fill="#AAB2AB" d="M408.051,18H11.904c0.001,0.15-0.004,0.304,0.006,0.45c0,29.99,0.01,59.99-0.01,89.98
	c4.84,0.01,9.67,0,14.51,0.01c5.75,9.95,14.11,18.47,24.34,23.81c12.69,6.82,27.9,8.63,41.88,5.26
	c16.08-3.78,30.11-14.71,38.19-29.06c92.43-0.04,184.85,0.01,277.28-0.02C408.05,78.29,408.158,48.14,408.051,18z M117.55,110.52
	c-5.7,5.46-11.97,10.61-19.42,13.45c-17.28,6.71-38.67,4.19-52.59-8.56c-8.59-7.17-15.44-16.82-17.9-27.86
	c-2.57-12.68-1.49-26.5,5.07-37.85c8.33-13.95,22.62-25.37,39.3-26.5c12.09-1.39,24.91,0.75,35.15,7.59
	c13.03,8.55,22.65,22.98,23.48,38.77C132.28,84.24,128.01,99.82,117.55,110.52z M215.42,80.46c-5.62,8.61-14.57,15.1-24.65,17.31
	c-8.75,1.79-18.2,0.88-26.13-3.38c-12.05-6.38-20.91-19.12-21.15-32.96c-1.17-17.92,12.02-35.38,29.46-39.4
	c9.91-2.22,20.79-0.94,29.52,4.42c8.5,5.22,15.16,13.68,17.49,23.46C222.39,60.15,221.13,71.5,215.42,80.46z M303.96,78.91
	c-7.23,12.66-21.85,20.81-36.48,19.62c-19.14-0.76-36.02-17.92-36.36-37.1c-1.23-18.32,12.6-36.13,30.57-39.68
	c9.25-1.71,19.24-0.66,27.46,4.12c9.31,5.32,16.46,14.55,18.7,25.11C309.75,60.34,308.75,70.54,303.96,78.91z M390.62,80.54
	c-5.51,8.34-14.11,14.72-23.89,17.03c-9.25,2.1-19.38,1.1-27.67-3.66c-11.61-6.45-20.01-18.91-20.31-32.36
	c-1.23-17.87,11.81-35.34,29.18-39.48c9.68-2.2,20.3-1.16,28.96,3.86c9.38,5.37,16.49,14.74,18.65,25.39
	C397.49,61.2,396.12,71.97,390.62,80.54z"/>
<path d="M8.5,9.5v141h403V9.5H8.5z M175.62,140.71c-4.79,1.76-10.06,0.64-15.06,0.94c0-7.4,0-14.81,0-22.21
	c4.79,0.22,9.73-0.59,14.41,0.65c4.09,1.35,3.92,7.36,0.5,9.42C180.24,131.38,180.37,138.79,175.62,140.71z M194.6,130.67
	c-2.43,3.16-1.15,7.32-1.43,10.98c-1.65,0-3.29,0-4.93,0.01c-0.05-2.89,0.2-5.8-0.13-8.67c-2.43-4.65-5.4-9-8.01-13.55
	c1.82,0,3.64,0,5.46,0c1.74,2.92,3.48,5.85,5.23,8.77c1.7-2.89,3.42-5.77,5.08-8.68c1.85-0.06,3.7-0.1,5.55-0.12
	C199.16,123.18,196.89,126.93,194.6,130.67z M265.97,141.65c-1.63,0-3.25,0.01-4.87,0.01c-3.12-4.98-6.22-9.98-9.35-14.96
	c0,4.99,0,9.97,0,14.96c-1.52,0-3.04-0.01-4.56,0c0-7.42,0-14.83,0-22.25c1.63,0.02,3.27,0.05,4.91,0.08
	c3.05,4.99,6.18,9.93,9.27,14.89c0.01-4.98,0-9.96,0-14.94c1.53,0,3.06,0,4.6,0C265.97,126.84,265.97,134.25,265.97,141.65z
	 M287.28,139.29c-3.62,3.68-10.07,3.57-13.97,0.39c-6.61-5.36-4.68-18.46,4.13-20.29c5.45-1.82,11.61,1.79,12.53,7.5
	c-1.52,0.01-3.04,0.01-4.55,0.01c-1.13-1.83-2.56-3.97-5.01-3.85c-8.28-0.14-8.34,15.1-0.04,14.96c2.95,0.25,4.3-2.61,5.15-4.91
	c1.53,0,3.07,0,4.61,0.01C289.48,135.29,288.95,137.63,287.28,139.29z M350.66,139.71c-5.3,4.57-16.42,2.71-16.84-5.42
	c1.52,0,3.04,0,4.57,0c0.72,3.99,5.81,5.29,8.82,2.99c1.71-1.66-0.17-4-2.06-4.25c-3.99-1.29-10.35-1.94-10.39-7.4
	c0.52-9.25,16.9-8.82,17.29,0.41c-1.52,0.01-3.03,0.01-4.53,0.01c-0.57-4.29-8.96-4.76-7.88,0.2c3.02,2.21,7.13,1.86,10.28,3.83
	C353.13,132.12,353.42,137.17,350.66,139.71z M369.9,141.65c-0.56-1.64-1.12-3.29-1.68-4.93c-2.77,0-5.53,0-8.3,0
	c-0.6,1.66-1.21,3.32-1.83,4.98c-1.62-0.03-3.24-0.05-4.86-0.07c2.8-7.4,5.6-14.8,8.4-22.19c1.67,0,3.34,0,5.02,0
	c2.78,7.4,5.55,14.81,8.32,22.22C373.27,141.65,371.59,141.65,369.9,141.65z M130.82,108.45c-8.08,14.35-22.11,25.28-38.19,29.06
	c-13.98,3.37-29.19,1.56-41.88-5.26c-10.23-5.34-18.59-13.86-24.34-23.81c-4.84-0.01-9.67,0-14.51-0.01
	c0.019-27.916,0.011-55.84,0.009-83.756c-0.001-0.032-0.009-0.063-0.009-0.095v-6.835c0.001-0.044-0.002-0.086,0-0.13V15.17
	c0-1.475,1.196-2.67,2.67-2.67h390.829c1.475,0,2.671,1.196,2.671,2.67v9.409c0,0.019-0.005,0.036-0.005,0.055
	c0.072,27.93-0.011,55.867,0.035,83.796C315.67,108.46,223.25,108.41,130.82,108.45z"/>
</svg>
